<svg width="666.004" height="135.019" viewBox="-10 -10 676.004 145.019" xmlns="http://www.w3.org/2000/svg"><g id="svgGroup" stroke-linecap="round" fill-rule="nonzero" font-size="9pt" stroke="#059669" stroke-width="3mm" fill="#ffffff" style="stroke:#ec4899;stroke-width:3mm;fill:#ffffff"><path d="M 93.6 2.002 L 100 2.002 L 50 120.002 L 0 2.002 L 6.4 2.002 L 50 104.602 L 93.6 2.002 Z" id="0"/><path d="M 122.6 118.002 L 122.6 2.002 L 128.6 2.002 L 128.6 118.002 L 122.6 118.002 Z" id="1"/><path d="M 239.8 102.202 L 244.2 106.202 A 33.74 33.74 0 0 1 228.561 116.97 Q 219.919 120.002 208.2 120.002 Q 192.465 120.002 182.355 114.377 A 31.724 31.724 0 0 1 172.4 105.802 Q 162.569 92.876 161.687 65.533 A 171.599 171.599 0 0 1 161.6 60.002 A 146.663 146.663 0 0 1 162.407 44.022 Q 164.225 27.498 170.136 17.568 A 35.802 35.802 0 0 1 172.4 14.202 A 33.275 33.275 0 0 1 188.459 2.918 Q 194.21 0.925 201.323 0.294 A 77.923 77.923 0 0 1 208.2 0.002 Q 237.2 0.002 247.6 19.002 L 198.6 60.002 L 189.2 60.002 L 239.8 17.802 Q 231 6.002 208.2 6.002 A 79.275 79.275 0 0 0 201.15 6.298 Q 195.65 6.79 191.4 8.102 Q 184.6 10.202 178.9 15.902 A 26.796 26.796 0 0 0 174.468 21.885 Q 172.832 24.829 171.591 28.482 A 55.239 55.239 0 0 0 170.4 32.502 A 77.758 77.758 0 0 0 168.694 41.479 Q 167.6 49.627 167.6 60.002 A 162.73 162.73 0 0 0 167.962 71.197 Q 168.324 76.441 169.05 80.945 A 73.292 73.292 0 0 0 170.4 87.502 Q 172.454 95.496 176.067 100.694 A 24.927 24.927 0 0 0 178.9 104.102 A 33.431 33.431 0 0 0 185.267 109.143 A 27.665 27.665 0 0 0 191.4 111.902 A 42.402 42.402 0 0 0 197.453 113.262 Q 200.459 113.725 203.906 113.898 A 85.478 85.478 0 0 0 208.2 114.002 A 68.832 68.832 0 0 0 219.325 113.17 Q 225.017 112.235 229.464 110.249 A 25.6 25.6 0 0 0 239.8 102.202 Z" id="2"/><path d="M 261.2 2.002 L 351.2 2.002 L 351.2 8.002 L 309.2 8.002 L 309.2 118.002 L 303.2 118.002 L 303.2 8.002 L 261.2 8.002 L 261.2 2.002 Z" id="3"/><path d="M 384.8 118.002 L 384.8 112.002 L 450 112.002 L 409 15.402 L 365.4 118.002 L 359 118.002 L 409 0.002 L 459 118.002 L 384.8 118.002 Z" id="4"/><path d="M 564.4 118.002 L 555.8 118.002 L 494.2 56.802 L 549.4 2.002 L 558 2.002 L 502.8 56.802 L 564.4 118.002 Z M 487.8 118.002 L 481.8 118.002 L 481.8 2.002 L 487.8 2.002 L 487.8 118.002 Z" id="5"/><path d="M 582.8 2.002 L 588.8 2.002 L 588.8 60.002 A 148.595 148.595 0 0 0 589.394 73.796 Q 591.175 92.827 598.3 101.902 A 30.682 30.682 0 0 0 620.792 113.852 A 42.494 42.494 0 0 0 624.4 114.002 A 36.547 36.547 0 0 0 636.285 112.156 A 30.258 30.258 0 0 0 650.5 101.902 Q 658.562 91.634 659.782 68.617 A 162.961 162.961 0 0 0 660 60.002 L 660 2.002 L 666 2.002 L 666 60.002 A 128.124 128.124 0 0 1 664.413 81.151 Q 658.098 118.679 626.649 119.957 A 55.383 55.383 0 0 1 624.4 120.002 A 39.988 39.988 0 0 1 603.826 114.989 Q 587.687 105.524 583.936 78.193 A 134.315 134.315 0 0 1 582.8 60.002 L 582.8 2.002 Z" id="6"/></g></svg>